<?xml version="1.0" encoding="UTF-8" standalone="no"?>
<!-- Created with Inkscape (http://www.inkscape.org/) -->

<svg
   width="91.057304mm"
   height="59.105988mm"
   viewBox="0 0 91.057304 59.105988"
   version="1.1"
   id="svg1"
   xml:space="preserve"
   xmlns="http://www.w3.org/2000/svg"
   xmlns:svg="http://www.w3.org/2000/svg"><defs
     id="defs1" /><g
     id="layer1"
     transform="translate(-67.040018,-147.38481)"><ellipse
       style="fill:#c52f2a;fill-opacity:1;stroke-width:0.352483"
       id="path18"
       cx="105"
       cy="170.65216"
       rx="9.1519966"
       ry="4.2161388" /><path
       id="path2"
       style="fill:#000000;stroke-width:0.934261"
       d="m 102.44543,147.3848 -2.720251,0.18655 c -3.791047,0.25956 -6.851875,1.5693 -9.244914,3.98167 -1.861274,1.87643 -3.318219,4.42031 -4.400248,7.65587 -0.462298,1.38242 -0.792868,2.69182 -0.734322,2.91041 -3.269192,0.006 -5.075241,0.59506 -8.220687,2.68201 l -1.622123,1.07642 -2.727482,2.56677 -1.230933,1.67742 c -1.568005,2.13605 -3.291394,5.89507 -3.976501,8.67492 -0.843633,3.42306 -0.764771,3.83455 0.886767,4.63692 l 1.420069,0.6904 2.058789,-1.33067 c 1.543082,-0.99735 2.859739,-1.51288 5.260661,-2.05982 5.381509,-1.22592 8.796806,-2.7347 14.012064,-6.19032 1.227067,-0.81305 2.281519,-1.41805 2.343526,-1.34462 0.06201,0.0734 0.515008,0.83055 1.006657,1.68259 1.906831,3.30458 5.062204,5.5535 8.484238,6.04717 3.27169,0.47197 8.00224,-0.7681 15.40939,-4.03903 2.23824,-0.98839 4.11868,-1.74758 4.17856,-1.68723 0.0599,0.0604 -1.36353,2.08719 -3.1626,4.50411 -1.90107,2.55396 -3.2706,4.70959 -3.2706,5.14698 0,0.9865 1.50243,3.02767 3.3259,4.51755 5.89094,4.81321 14.23423,8.42213 20.3078,8.78448 l 3.08405,0.18396 -0.52658,-1.78077 c -0.70147,-2.37351 -0.59142,-2.27531 -2.53887,-2.27531 -4.35901,0 -13.63016,-4.14448 -17.84748,-7.97832 l -1.56735,-1.42472 3.73776,-4.98471 c 2.05564,-2.74151 4.0503,-5.41378 4.4328,-5.93866 0.68386,-0.93846 0.74824,-0.95498 3.87625,-0.95498 1.90396,0 3.17935,-0.1322 3.17655,-0.32969 -0.003,-0.18146 -0.20347,-0.99829 -0.44649,-1.81488 -0.40867,-1.37328 -0.53231,-1.49175 -1.64486,-1.58647 -0.66155,-0.0563 -1.20302,-0.17929 -1.20302,-0.27285 0,-0.22724 2.97034,-4.07933 3.14554,-4.07933 0.62543,0 3.68596,9.06342 5.96139,17.65215 0.8173,3.08492 2.23079,7.98425 3.14038,10.88771 3.44268,10.98895 4.05633,12.11217 6.92568,12.67571 0.79665,0.15646 2.59908,0.30049 4.00544,0.32039 l 2.55695,0.0362 v -1.76889 -1.76888 l -3.03496,-0.1726 c -3.62054,-0.20643 -3.75297,-0.31804 -5.05757,-4.2354 l -0.8847,-2.65565 1.01596,-1.90583 c 4.04172,-7.58305 1.63926,-16.61632 -5.68441,-21.37234 -2.28154,-1.48163 -2.48482,-1.71092 -3.02049,-3.40341 -1.03674,-3.27557 -2.9733,-7.06818 -4.08812,-8.00623 -2.19411,-1.84623 -2.94444,-1.36535 -7.59385,4.86534 -2.70336,3.62275 -2.70388,3.62287 -5.07721,4.31601 -1.30534,0.38123 -4.60005,1.67222 -7.32204,2.86856 -6.39433,2.8104 -9.27135,3.67664 -12.20752,3.67575 -3.52177,-9.3e-4 -6.164301,-1.64634 -7.809343,-4.86224 -0.773617,-1.51235 -0.806611,-1.4749 2.965713,-3.40599 4.37952,-2.24192 7.73549,-1.65811 12.18943,2.12028 l 2.09135,1.77405 1.27486,-1.09502 c 0.70113,-0.60236 -0.0153,0.11412 0,0 0.0872,-0.64736 -3.51639,-5.95609 -5.74591,-7.05797 -4.24762,-2.0993 -7.63444,-1.70557 -12.912902,1.5012 -1.201148,0.72973 -2.237272,1.32705 -2.302185,1.32705 -0.06491,0 -0.788156,-0.71707 -1.607654,-1.59318 -1.477082,-1.57912 -2.751923,-2.50885 -4.267957,-3.01429 l 0.40411,-1.36374 c 1.854572,-6.25914 5.438883,-9.52303 10.938868,-9.96115 l 2.08359,-0.16588 z m -17.259932,18.37924 c 1.397828,-0.007 2.175868,0.19971 3.357935,0.89245 1.616273,0.9472 3.002715,2.42786 2.811198,3.0024 -0.110088,0.33027 -4.685266,3.32316 -6.668844,4.36253 -1.964952,1.02961 -5.655606,2.37397 -7.91838,2.88458 -1.270261,0.28665 -2.949433,0.74715 -3.731555,1.02319 -1.416322,0.49989 -1.421065,0.4987 -1.194242,-0.23306 1.9007,-6.13191 8.358669,-11.90659 13.343888,-11.93209 z m 59.006222,11.34763 c 0.4307,0.027 2.0321,2.17147 2.93418,3.97392 0.73227,1.46314 0.92917,2.35813 1.01596,4.61935 0.10379,2.70486 -0.32003,5.06039 -0.71262,3.95945 -0.66433,-1.86297 -3.44429,-12.39246 -3.3078,-12.52895 0.0178,-0.0177 0.0416,-0.0256 0.0703,-0.0238 z" /></g></svg>
